<?xml version="1.0" standalone="no"?>
<!DOCTYPE svg PUBLIC "-//W3C//DTD SVG 20010904//EN"
 "http://www.w3.org/TR/2001/REC-SVG-20010904/DTD/svg10.dtd">
<svg version="1.0" xmlns="http://www.w3.org/2000/svg"
 width="898.000000pt" height="898.000000pt" viewBox="0 0 898.000000 898.000000"
 preserveAspectRatio="xMidYMid meet">
<metadata>
Created by potrace 1.14, written by Peter Selinger 2001-2017
</metadata>
<g transform="translate(0.000000,898.000000) scale(0.100000,-0.100000)"
fill="#000000" stroke="none">
<path d="M4160 8964 c-475 -42 -896 -138 -1304 -298 -584 -229 -1089 -560
-1536 -1006 -351 -350 -615 -715 -839 -1160 -485 -961 -606 -2070 -341 -3115
285 -1123 991 -2089 1984 -2710 889 -558 1972 -781 3031 -625 669 98 1346 367
1895 752 1046 734 1729 1859 1890 3113 113 878 -41 1789 -435 2575 -628 1253
-1798 2140 -3172 2404 -283 55 -433 68 -793 71 -184 1 -355 1 -380 -1z m-509
-3000 l192 -235 21 25 c12 15 98 120 191 236 l170 209 982 0 981 1 67 -72
c323 -352 531 -784 612 -1273 26 -157 26 -563 0 -720 -69 -416 -215 -760 -461
-1090 -102 -136 -300 -339 -426 -437 -601 -465 -1356 -625 -2082 -442 -970
244 -1687 1070 -1798 2069 -13 116 -13 404 0 520 57 509 278 998 620 1368 l72
77 333 0 333 0 193 -236z"/>
<path d="M2990 5568 c-246 -281 -402 -618 -456 -988 -24 -169 -15 -460 20
-626 216 -1017 1199 -1668 2210 -1463 720 146 1300 720 1455 1441 46 216 53
499 17 703 -66 368 -237 711 -480 963 l-60 62 -751 0 -751 0 -150 -184 c-82
-102 -153 -185 -159 -185 -5 0 -77 83 -159 185 l-150 184 -253 0 -252 0 -81
-92z m2219 -433 c371 -88 508 -559 240 -828 -151 -150 -394 -188 -581 -90
-148 78 -236 207 -258 378 -20 159 26 292 139 406 126 126 290 174 460 134z
m-1285 -53 c252 -125 353 -420 229 -672 -102 -208 -346 -322 -566 -265 -177
46 -302 163 -357 334 -19 60 -22 86 -18 183 3 108 5 116 43 191 66 131 186
227 328 263 32 8 92 12 154 10 98 -3 107 -5 187 -44z m608 -1343 c251 -52 428
-308 388 -561 -15 -97 -36 -139 -82 -161 -46 -22 -86 -16 -121 19 -34 33 -38
67 -19 146 13 56 14 75 3 121 -42 188 -245 282 -412 191 -95 -52 -159 -172
-145 -273 9 -65 51 -146 96 -184 21 -17 69 -43 106 -57 79 -30 109 -62 109
-120 0 -56 -45 -101 -102 -102 -83 -1 -185 47 -272 128 -77 71 -136 184 -152
292 -51 341 261 632 603 561z"/>
<path d="M5006 4914 c-97 -30 -186 -153 -186 -258 0 -111 87 -230 189 -260 30
-9 69 -16 86 -16 60 0 135 30 182 73 121 112 125 277 8 393 -78 79 -171 101
-279 68z"/>
<path d="M3604 4894 c-88 -31 -153 -111 -175 -213 -19 -89 23 -202 100 -268
37 -32 124 -63 176 -63 64 0 147 35 195 81 57 55 83 118 84 199 2 195 -193
330 -380 264z"/>
</g>
</svg>
